<svg width="48" height="48" viewBox="0 0 48 48" fill="none" xmlns="http://www.w3.org/2000/svg">
<path d="M48 0H0V48H48V0Z" fill="#CD412B"/>
<path d="M15.7211 21.6418L5.51904 19.9693V30.1379L15.7211 28.4655V21.6418Z" fill="#1E2020"/>
<path d="M20.8389 21.6418H17.427V28.432H20.8389V21.6418Z" fill="#1E2020"/>
<path d="M28.4652 15.7213L30.1376 5.51923H19.969L21.6415 15.7213H28.4652Z" fill="#1E2020"/>
<path d="M28.4319 17.4272H21.6416V20.839H28.4319V17.4272Z" fill="#1E2020"/>
<path d="M25.0529 22.6419L22.6404 25.0544L25.0529 27.4669L27.4654 25.0544L25.0529 22.6419Z" fill="#1E2020"/>
<path d="M29.2686 34.0516L35.256 42.4809L42.4811 35.2558L34.0518 29.2684L29.2686 34.0516Z" fill="#1E2020"/>
<path d="M30.4552 25.6617L25.6538 30.4631L28.0663 32.8757L32.8677 28.0743L30.4552 25.6617Z" fill="#1E2020"/>
</svg>
